# xmcd CD database file
#
# Track frame offsets:
#	150
#	26910
#	55745
#	71595
#	92727
#	121660
#	143627
#	163467
#	197865
#	221475
#	245277
#
# Disc length: 3597 seconds
#
# Revision: 0
# Processed by: cddbd v1.5PL3 Copyright (c) Steve Scherf et al.
# Submitted via: CDex 1.51
#
DISCID=9e0e0b0b
DTITLE=Lauglin/Fischer - New Orleans Swing
DYEAR=1995
DGENRE=Jazz
TTITLE0=I Want to be Happy
TTITLE1=Basin Street Blues
TTITLE2=King of the Mardi Gras
TTITLE3=Burgundy Street Blues
TTITLE4=Burgundy Street Blues
TTITLE5=St James Infirmary
TTITLE6=Little Rock Getaway
TTITLE7=Memories of You
TTITLE8=Ice Cream
TTITLE9=Blue turning grey over you
TTITLE10=Sweet Georgia Brown
EXTD=YEAR: 1995
EXTT0=
EXTT1=
EXTT2=
EXTT3=
EXTT4=
EXTT5=
EXTT6=
EXTT7=
EXTT8=
EXTT9=
EXTT10=
PLAYORDER=
